<svg xmlns="http://www.w3.org/2000/svg" width="20" height="20" viewBox="0 0 20 20">
  <path fill="#032031" d="M764.567099,32 L779.433107,32 C780.844898,32 782,33.0452282 782,34.5668669 L782,49.4331331 C782,50.9547718 780.844898,52 779.433107,52 L764.567099,52 C763.154897,52 762,50.9547718 762,49.4331331 L762,34.5668669 C762,33.0452282 763.154897,32 764.567099,32 L764.567099,32 Z M776.569275,34.2220853 C776.073968,34.2220853 775.66922,34.6270342 775.66922,35.1225422 L775.66922,37.2776837 C775.66922,37.7729863 776.073968,38.1781406 776.569275,38.1781406 L778.829784,38.1781406 C779.325092,38.1781406 779.73025,37.7729863 779.73025,37.2776837 L779.73025,35.1225422 C779.73025,34.6270342 779.325092,34.2220853 778.829784,34.2220853 L776.569275,34.2220853 L776.569275,34.2220853 Z M779.739696,40.4579291 L777.979424,40.4579291 C778.145964,41.0016941 778.236113,41.5776991 778.236113,42.1736229 C778.236113,45.5002824 775.452369,48.19693 772.019098,48.19693 C768.586032,48.19693 765.802698,45.5002824 765.802698,42.1736229 C765.802698,41.5772884 765.892642,41.0014888 766.059388,40.4579291 L764.222519,40.4579291 L764.222519,48.9062067 C764.222519,49.3433955 764.580241,49.7013194 765.01764,49.7013194 L778.944986,49.7013194 C779.382385,49.7013194 779.740107,49.3436008 779.740107,48.9062067 L779.740107,40.4579291 L779.739696,40.4579291 Z M772.018892,38.0645824 C769.800686,38.0645824 768.002218,39.8069716 768.002218,41.9565686 C768.002218,44.1061656 769.800686,45.8485549 772.018892,45.8485549 C774.237304,45.8485549 776.035978,44.1061656 776.035978,41.9565686 C776.035978,39.8069716 774.237509,38.0645824 772.018892,38.0645824 Z" transform="translate(-762 -32)"/>
</svg>
