<svg xmlns="http://www.w3.org/2000/svg" width="20" height="20" viewBox="0 0 20 20">
  <path fill="#032031" d="M727.304891,32 L712.69506,32 C711.206649,32 710,33.2065912 710,34.69504 L710,49.3048622 C710,50.793311 711.2066,51.9999021 712.69506,51.9999021 L719.900559,51.9999021 L719.912839,44.8530192 L718.056069,44.8530192 C717.814768,44.8530192 717.618919,44.6579058 717.61799,44.4166071 L717.609085,42.1128702 C717.608156,41.8702506 717.804592,41.6730824 718.047213,41.6730824 L719.900608,41.6730824 L719.900608,39.4470875 C719.900608,36.8638414 721.478308,35.4572443 723.782746,35.4572443 L725.673716,35.4572443 C725.915652,35.4572443 726.111844,35.6533851 726.111844,35.8953687 L726.111844,37.8378915 C726.111844,38.0797773 725.915799,38.2758692 725.673961,38.2760159 L724.513497,38.2765541 C723.260271,38.2765541 723.017601,38.8720706 723.017601,39.7460199 L723.017601,41.6731313 L725.771371,41.6731313 C726.033759,41.6731313 726.237337,41.9022476 726.206417,42.1628228 L725.933364,44.4665597 C725.907237,44.6870163 725.720293,44.853117 725.498318,44.853117 L723.029881,44.853117 L723.017601,52 L727.304989,52 C728.7934,52 730,50.7934088 730,49.305009 L730,34.69504 C729.999951,33.2065912 728.793351,32 727.304891,32 Z" transform="translate(-710 -32)"/>
</svg>
