<svg xmlns="http://www.w3.org/2000/svg" width="24" height="17" viewBox="0 0 24 17">
  <path fill="#032031" d="M678.280758,39.5579209 C679.628689,39.4435765 680.543008,38.8135059 680.894875,37.9585904 C680.408645,38.2657082 678.899288,38.6005372 678.06571,38.2816579 C678.024865,38.0802786 677.979222,37.8889969 677.934416,37.7163041 C677.299258,35.3182264 675.124557,33.3862471 672.845902,33.6196405 C673.030262,33.5431049 673.217243,33.4718476 673.403667,33.4078767 C673.654482,33.3155061 675.126063,33.0693185 674.894331,32.535233 C674.699035,32.0654626 672.901087,32.8902573 672.562556,32.9980612 C673.009449,32.8252536 673.748503,32.528004 673.827682,32 C673.143031,32.0965588 672.470935,32.4293797 671.951615,32.9133212 C672.139099,32.705803 672.28133,32.4529027 672.311518,32.180725 C670.485447,33.3802229 669.418742,35.798496 668.555479,38.1443069 C667.877636,37.4688543 667.27685,36.9369489 666.73789,36.6415926 C665.225911,35.8079052 663.418086,34.9380727 660.580217,33.85487 C660.493115,34.8202859 661.044574,36.10395 662.633611,36.9576032 C662.289333,36.9102131 661.659755,37.0159516 661.156227,37.1399347 C661.361288,38.2459145 662.030985,39.157113 663.843998,39.5977378 C663.015442,39.6539634 662.587243,39.8478268 662.199162,40.2656746 C662.576529,41.0348747 663.497376,41.9401637 665.153874,41.7543325 C663.31218,42.5705212 664.402935,44.0820136 665.901522,43.8565949 C663.345046,46.5716587 659.314477,46.3721153 657,44.1012335 C663.042951,52.5678858 676.17893,49.108407 678.136519,40.953405 C679.603189,40.9662566 680.465392,40.4310236 681,39.8409421 C680.154983,39.9883907 678.9302,39.836008 678.280758,39.5579209 Z" transform="translate(-657 -32)"/>
</svg>
