<svg xmlns="http://www.w3.org/2000/svg" width="26" height="24" viewBox="0 0 26 24">
  <g fill="#032031" fill-rule="evenodd" opacity=".2">
    <rect width="2" height="24"/>
    <rect width="21" height="2"/>
    <rect width="2" height="7" x="19"/>
    <polygon points="14 8 20.037 5 26 8 26 12 14 12"/>
    <polygon fill-rule="nonzero" points="14 14 16 14 16 16 14 16"/>
    <polygon fill-rule="nonzero" points="14 18 16 18 16 20 14 20"/>
    <polygon fill-rule="nonzero" points="24 18 26 18 26 20 24 20"/>
    <polygon fill-rule="nonzero" points="19 18 21 18 21 20 19 20"/>
    <polygon fill-rule="nonzero" points="14 22 16 22 16 24 14 24"/>
    <polygon fill-rule="nonzero" points="24 22 26 22 26 24 24 24"/>
    <polygon fill-rule="nonzero" points="19 22 21 22 21 24 19 24"/>
    <polygon fill-rule="nonzero" points="19 14 21 14 21 16 19 16"/>
    <polygon fill-rule="nonzero" points="24 14 26 14 26 16 24 16"/>
  </g>
</svg>
