<svg xmlns="http://www.w3.org/2000/svg" width="48" height="48" viewBox="0 0 48 48">
  <g fill="#279647">
    <path d="M24,0.25 C10.9005,0.25 0.25,10.9005 0.25,24 C0.25,37.0995 10.9005,47.75 24,47.75 C37.0995,47.75 47.75,37.0995 47.75,24 C47.75,10.9005 37.0995,0.25 24,0.25 Z M24,44.8495 C12.5,44.8495 3.1505,35.5 3.1505,24 C3.1505,12.5 12.5,3.1505 24,3.1505 C35.5,3.1505 44.8495,12.5 44.8495,24 C44.8495,35.5 35.5,44.8495 24,44.8495 Z"/>
    <path d="M35,16.5 L20.949,30.551 L13.7985,23.4005 C13.0993,22.7013 11.9489,22.7013 11.2477,23.4005 C10.5485,24.0997 10.5485,25.2501 11.2477,25.9513 L19.6482,34.3518 C19.99781,34.70141 20.449,34.9026 20.949,34.9026 C21.449,34.9026 21.8982,34.70338 22.2498,34.3518 L37.5508,19.0508 C38.25,18.3516 38.25,17.2012 37.5508,16.5 C36.84965,15.8008 35.75,15.8008 35,16.5 L35,16.5 Z"/>
  </g>
</svg>
