<svg xmlns="http://www.w3.org/2000/svg" width="16" height="15" viewBox="0 0 16 15">
  <path fill="#F8C333" d="M98.244669,1844.48923 C98.1916518,1844.54145 98.1386346,1844.64691 98.1646242,1844.72473 L99.0160084,1849.67829 C99.043036,1849.88819 98.8299291,1850.07147 98.6168223,1849.96704 L94.1198575,1847.63459 C94.0398127,1847.58237 93.9337782,1847.58237 93.8537334,1847.63459 L89.3567687,1849.96704 C89.1436618,1850.07148 88.9045706,1849.91482 88.9575825,1849.67829 L89.8089667,1844.72473 C89.8359943,1844.64589 89.7819391,1844.54145 89.7289219,1844.48923 L86.0832881,1840.97629 C85.9231985,1840.81861 86.0032433,1840.55648 86.2433777,1840.50426 L91.2725906,1839.77011 C91.3526354,1839.77011 91.4326802,1839.69127 91.4856975,1839.61243 L93.7477522,1835.15743 C93.8537867,1834.94752 94.1469383,1834.94752 94.2529621,1835.15743 L96.5150168,1839.66564 C96.5680341,1839.74448 96.6210513,1839.7967 96.7281237,1839.82332 L101.757337,1840.55747 C101.996433,1840.58409 102.076473,1840.87181 101.917426,1841.0295 L98.244669,1844.48923 Z" transform="translate(-86 -1835)"/>
</svg>
