<svg xmlns="http://www.w3.org/2000/svg" width="12" height="26" viewBox="0 0 12 26">
  <path fill="#032031" d="M689.964252,822.999975 C689.964252,825.21135 688.182034,826.99995 685.978551,826.99995 C683.775068,826.99995 681.99285,825.21135 681.99285,822.999975 C681.99285,820.788601 683.775068,819 685.978551,819 C688.182034,819 689.964252,820.788601 689.964252,822.999975 Z M690.922424,828.000058 L681.039412,828.000058 C680.342712,828.000058 680,828.150704 680,828.7991 L680,837.00005 L681.99285,838.000043 L681.99285,845 L689.964252,845 L689.964252,838.000043 L691.957102,837.00005 C692.014299,832.086888 692.014299,829.353905 691.957102,828.8011 C691.871305,827.971893 691.568506,828.000058 690.922424,828.000058 Z" transform="translate(-680 -819)" opacity=".2"/>
</svg>
