<svg xmlns="http://www.w3.org/2000/svg" width="46" height="37" viewBox="0 0 46 37">
  <path fill="#000000" d="M40,5.8205 L35.63085,5.8205 C34.7324,5.8205 33.92185,5.2873 33.56445,4.46505 L33.15039,3.5002 C32.24024,1.3967 30.16799,0.03535 27.87489,0.03535 L18.13089,0.03535 C15.83599,0.033397 13.75979,1.39475 12.84989,3.5002 L11.84989,5.81075 L6.00039,5.81075 C2.82654,5.812703 0.25239,8.38495 0.25039,11.56075 L0.25039,31.21125 C0.252343,34.3851 2.82654,36.95725 6.00039,36.96125 L40.00039,36.96125 C43.17424,36.9573435 45.74839,34.3851 45.75039,31.21125 L45.75039,11.57075 C45.748437,8.39495 43.17424,5.82275 40.00039,5.82075 L40,5.8205 Z M23,31.4005 C19.9492,31.4005 17.0255,30.1876 14.869,28.03135 C12.7108,25.8751 11.49985,22.94935 11.49985,19.90035 C11.49985,16.84955 12.7108,13.92585 14.869,11.76735 C17.02525,9.6111 19.949,8.40015 23,8.40015 C26.051,8.40015 28.9745,9.6111 31.131,11.76735 C33.2892,13.92555 34.50015,16.84935 34.50015,19.90035 C34.50015,22.9492 33.2892,25.87485 31.131,28.03135 C28.97475,30.1876 26.051,31.4005 23,31.4005 Z"/>
</svg>
